<mxfile host="app.diagrams.net" modified="2021-04-02T20:47:03.987Z" agent="5.0 (Windows NT 10.0; Win64; x64) AppleWebKit/537.36 (KHTML, like Gecko) Chrome/89.0.4389.90 Safari/537.36" etag="PZCgqfe_9oojRNsE6l8H" version="14.5.3" type="github">
  <diagram id="Rzhv39uRHPJgM1VJzzdm" name="Page-1">
    <mxGraphModel dx="2062" dy="762" grid="1" gridSize="10" guides="1" tooltips="1" connect="1" arrows="1" fold="1" page="1" pageScale="1" pageWidth="827" pageHeight="1169" math="0" shadow="0">
      <root>
        <mxCell id="0" />
        <mxCell id="1" parent="0" />
        <mxCell id="fRolGcnS6d_slUNVsV01-1" value="Pool" style="swimlane;html=1;childLayout=stackLayout;resizeParent=1;resizeParentMax=0;startSize=20;" vertex="1" parent="1">
          <mxGeometry x="30" y="260" width="360" height="250" as="geometry" />
        </mxCell>
        <mxCell id="fRolGcnS6d_slUNVsV01-2" value="Lane 1" style="swimlane;html=1;startSize=20;" vertex="1" parent="fRolGcnS6d_slUNVsV01-1">
          <mxGeometry y="20" width="120" height="230" as="geometry" />
        </mxCell>
        <mxCell id="fRolGcnS6d_slUNVsV01-3" value="Lane 2" style="swimlane;html=1;startSize=20;" vertex="1" parent="fRolGcnS6d_slUNVsV01-1">
          <mxGeometry x="120" y="20" width="120" height="230" as="geometry" />
        </mxCell>
        <mxCell id="fRolGcnS6d_slUNVsV01-4" value="Lane 3" style="swimlane;html=1;startSize=20;" vertex="1" parent="fRolGcnS6d_slUNVsV01-1">
          <mxGeometry x="240" y="20" width="120" height="230" as="geometry" />
        </mxCell>
      </root>
    </mxGraphModel>
  </diagram>
</mxfile>
